<svg xmlns="http://www.w3.org/2000/svg" width="47.787" height="42" viewBox="0 0 47.787 42"><defs><style>.a{fill:#fff;}</style></defs><g transform="translate(0)"><path class="a" d="M211,240h8.4v2.8H211Zm0,0" transform="translate(-191.307 -217.6)"/><path class="a" d="M38.769,95.385H30.893v1.4a1.4,1.4,0,0,1-1.4,1.4h-11.2a1.4,1.4,0,0,1-1.4-1.4v-1.4H9.018a4.2,4.2,0,0,1-3.984-2.871L0,77.41v30.575a4.2,4.2,0,0,0,4.2,4.2H43.587a4.2,4.2,0,0,0,4.2-4.2V77.411l-5.034,15.1a4.194,4.194,0,0,1-3.984,2.871Zm0,0" transform="translate(0 -70.185)"/><path class="a" d="M52.893,0h-11.2a4.2,4.2,0,0,0-4.2,4.2V5.6H25.809l5.28,15.843a1.4,1.4,0,0,0,1.329.957h7.875V21a1.4,1.4,0,0,1,1.4-1.4h11.2a1.4,1.4,0,0,1,1.4,1.4v1.4h7.875a1.4,1.4,0,0,0,1.329-.957L68.778,5.6H57.094V4.2a4.2,4.2,0,0,0-4.2-4.2Zm-12.6,5.6V4.2a1.4,1.4,0,0,1,1.4-1.4h11.2a1.4,1.4,0,0,1,1.4,1.4V5.6Zm0,0" transform="translate(-23.4)"/></g></svg>