<svg xmlns="http://www.w3.org/2000/svg" width="65.436" height="37.786" viewBox="0 0 65.436 37.786"><defs><style>.a{fill:#fff;}</style></defs><path class="a" d="M181.541,197.8v6.283a2.183,2.183,0,0,1-1.206,1.952l-9.648,4.823a11.942,11.942,0,0,0-2.909,2.048,2.184,2.184,0,0,1-3.016,0,11.942,11.942,0,0,0-2.909-2.048l-9.648-4.823A2.183,2.183,0,0,1,151,204.086V197.8l13.473,3.85a6.547,6.547,0,0,0,3.6,0Z" transform="translate(-133.553 -175.726)"/><g transform="translate(52.352 19.584)"><path class="a" d="M395.363,180.663V193.8a2.182,2.182,0,0,1-4.363,0V181.909Z" transform="translate(-391 -180.663)"/></g><path class="a" d="M63.154,67.734,32.612,59.008a2.184,2.184,0,0,1,0-4.2l30.541-8.726a2.18,2.18,0,0,1,1.2,0l30.541,8.726a2.184,2.184,0,0,1,0,4.2L64.352,67.734A2.182,2.182,0,0,1,63.154,67.734Z" transform="translate(-31.035 -46.002)"/></svg>